<svg xmlns="http://www.w3.org/2000/svg" xmlns:xlink="http://www.w3.org/1999/xlink" width="70.571" height="70.571" viewBox="0 0 70.571 70.571">
  <defs>
    <clipPath id="clip-path">
      <path id="Path_2483" data-name="Path 2483" d="M.5,0H71.071V70.571H.5Zm0,0" transform="translate(-0.5)" fill="#bd2c34"/>
    </clipPath>
  </defs>
  <g id="MVP_PoC_Development" data-name="MVP/PoC Development" transform="translate(-0.5)">
    <g id="Group_606" data-name="Group 606" transform="translate(0.5)" clip-path="url(#clip-path)">
      <path id="Path_2482" data-name="Path 2482" d="M35.75.035A35.284,35.284,0,1,1,10.8,10.369,35.179,35.179,0,0,1,35.75.035Zm23.565,11.72a33.325,33.325,0,1,0,9.761,23.565A33.218,33.218,0,0,0,59.315,11.756Zm0,0" transform="translate(-0.471 -0.029)" fill="#bd2c34"/>
    </g>
    <path id="Path_2484" data-name="Path 2484" d="M79.646,92.2h40.2a1.956,1.956,0,0,1,1.951,1.951V120.4a1.957,1.957,0,0,1-1.951,1.951h-40.2A1.956,1.956,0,0,1,77.7,120.4V94.146A1.956,1.956,0,0,1,79.646,92.2Zm.51,2.461v25.231h39.185V94.656Zm0,0" transform="translate(-63.969 -76.399)" fill="#bd2c34" fill-rule="evenodd"/>
    <path id="Path_2485" data-name="Path 2485" d="M163,272.773c.323,2.108.679,5.6-3.682,8.051h16.136c-4.359-2.451-4-5.945-3.681-8.051Zm0,0" transform="translate(-131.606 -226.038)" fill="#bd2c34" fill-rule="evenodd"/>
    <path id="Path_2486" data-name="Path 2486" d="M220.78,170.137h.758a1.056,1.056,0,0,1,.747,1.8.248.248,0,0,1-.027.025,1.055,1.055,0,0,1-.719.285h-.758a.393.393,0,0,1-.393-.393v-1.329A.4.4,0,0,1,220.78,170.137Zm.758.785h-.366v.544h.366a.269.269,0,0,0,.179-.068l.013-.013a.27.27,0,0,0,0-.386A.284.284,0,0,0,221.538,170.922Zm0,0" transform="translate(-182.212 -140.986)" fill="#bd2c34"/>
    <path id="Path_2487" data-name="Path 2487" d="M221.172,178.287a.393.393,0,0,0-.785,0v1.329a.393.393,0,1,0,.785,0Zm0,0" transform="translate(-182.212 -147.415)" fill="#bd2c34"/>
    <path id="Path_2488" data-name="Path 2488" d="M180.645,172.882a.391.391,0,1,0,.7-.34L180.3,170.37a.391.391,0,1,0-.7.339Zm0,0" transform="translate(-148.377 -140.997)" fill="#bd2c34"/>
    <path id="Path_2489" data-name="Path 2489" d="M185.729,172.534a.391.391,0,0,0,.7.34l1.051-2.172a.391.391,0,1,0-.7-.339Zm0,0" transform="translate(-153.461 -140.99)" fill="#bd2c34"/>
    <path id="Path_2490" data-name="Path 2490" d="M179.551,173.187a.393.393,0,1,0,.785,0v-2.658a.393.393,0,0,0-.785,0Zm2.886-2.658a.393.393,0,0,0-.785,0v2.658a.393.393,0,1,0,.785,0Zm0,0" transform="translate(-148.373 -140.986)" fill="#bd2c34"/>
    <path id="Path_2491" data-name="Path 2491" d="M201.047,173.334a.392.392,0,1,0,.729-.288l-1.051-2.658a.392.392,0,0,0-.729.288Zm0,0" transform="translate(-165.292 -140.989)" fill="#bd2c34"/>
    <path id="Path_2492" data-name="Path 2492" d="M206.132,173.046a.392.392,0,1,0,.729.288l1.051-2.658a.392.392,0,0,0-.73-.288Zm0,0" transform="translate(-170.377 -140.989)" fill="#bd2c34"/>
    <path id="Path_2493" data-name="Path 2493" d="M157.048,121.373a8.261,8.261,0,0,1,3.686,1.528l1.6-1.6,1.751,1.751-1.6,1.6a8.261,8.261,0,0,1,1.528,3.686h2.259v2.476h-2.259a8.258,8.258,0,0,1-1.528,3.686l1.6,1.6-1.751,1.751-1.6-1.6a8.261,8.261,0,0,1-3.686,1.528v2.259h-2.476v-2.259a8.258,8.258,0,0,1-3.686-1.528l-1.6,1.6-1.751-1.751,1.6-1.6a8.259,8.259,0,0,1-1.528-3.686h-2.259v-2.476h2.259a8.262,8.262,0,0,1,1.528-3.686l-1.6-1.6,1.751-1.751,1.6,1.6a8.258,8.258,0,0,1,3.686-1.528v-2.259h2.476Zm-1.238,2.494a5.71,5.71,0,1,0,5.709,5.709A5.709,5.709,0,0,0,155.81,123.866Zm0,0" transform="translate(-120.03 -98.705)" fill="#bd2c34" fill-rule="evenodd"/>
  </g>
</svg>
