<svg xmlns="http://www.w3.org/2000/svg" xmlns:xlink="http://www.w3.org/1999/xlink" width="60.239" height="60.239" viewBox="0 0 60.239 60.239">
  <defs>
    <clipPath id="clip-path">
      <path id="Path_2522" data-name="Path 2522" d="M.5,0H60.739V60.239H.5Zm0,0" transform="translate(-0.5)" fill="#bd2c34"/>
    </clipPath>
  </defs>
  <g id="Enterprise_Software_Development" data-name="Enterprise Software  Development" transform="translate(-0.5)">
    <g id="Group_612" data-name="Group 612" transform="translate(0.5)" clip-path="url(#clip-path)">
      <path id="Path_2521" data-name="Path 2521" d="M55.719,0H5.52c-.165,0-.328.009-.492.025S4.7.065,4.541.1a4.905,4.905,0,0,0-.478.12A4.758,4.758,0,0,0,3.6.384a4.872,4.872,0,0,0-.445.211c-.145.077-.286.162-.423.253s-.268.189-.4.294-.249.214-.365.331-.226.238-.33.364-.2.259-.294.4-.176.277-.254.422S.947,2.948.883,3.1s-.118.306-.166.463S.63,3.88.6,4.041s-.056.324-.073.487S.5,4.855.5,5.02V43.171c0,.165.009.328.025.492s.041.326.073.487.073.32.12.478.1.311.166.463.134.3.211.445.162.286.254.422.189.269.294.4.214.249.33.364.238.227.365.331.259.2.4.294.278.176.423.253a4.87,4.87,0,0,0,.445.211,4.756,4.756,0,0,0,.463.166,4.9,4.9,0,0,0,.478.12c.161.033.324.057.487.073s.327.025.492.025H22.512c-.759,2.3-2.583,4.294-4.353,6.024h-1.6c-.1,0-.2.005-.295.015s-.2.025-.292.044-.192.043-.287.072-.187.062-.278.1a2.915,2.915,0,0,0-.267.127q-.13.069-.254.152c-.082.055-.161.113-.237.176s-.149.129-.219.2a3.119,3.119,0,0,0-.375.456c-.055.082-.105.166-.152.253s-.089.177-.126.267-.071.184-.1.278-.053.19-.072.286-.034.194-.043.293-.015.2-.015.3v2.008a.978.978,0,0,0,.019.2,1,1,0,0,0,.6.732,1.009,1.009,0,0,0,.384.077H46.683a.983.983,0,0,0,.2-.019,1,1,0,0,0,.189-.057,1.008,1.008,0,0,0,.173-.093,1,1,0,0,0,.427-.639,1.022,1.022,0,0,0,.019-.2V57.227c0-.1,0-.2-.014-.3s-.025-.2-.044-.293-.043-.192-.072-.286-.062-.187-.1-.278-.08-.18-.127-.267a2.908,2.908,0,0,0-.152-.253q-.082-.123-.176-.237c-.063-.077-.129-.15-.2-.219s-.143-.136-.219-.2-.155-.121-.237-.176a3.08,3.08,0,0,0-.52-.279q-.137-.057-.278-.1t-.287-.072a2.947,2.947,0,0,0-.292-.044c-.1-.01-.2-.014-.3-.015h-1.6c-1.77-1.73-3.593-3.719-4.353-6.024H55.719c.164,0,.328-.009.492-.025s.326-.041.487-.073a4.9,4.9,0,0,0,.478-.12,4.821,4.821,0,0,0,.464-.166q.227-.094.445-.211c.145-.077.286-.162.422-.253s.269-.189.4-.294a4.765,4.765,0,0,0,.365-.331q.174-.174.331-.364c.1-.127.2-.259.294-.4s.175-.277.253-.422a4.872,4.872,0,0,0,.211-.445q.094-.228.166-.463c.048-.158.088-.316.12-.478s.057-.324.073-.487.025-.327.025-.492V5.02c0-.165-.009-.328-.025-.492s-.041-.326-.073-.487-.072-.32-.12-.478-.1-.311-.166-.463-.133-.3-.211-.445-.162-.286-.253-.422-.19-.269-.294-.4-.215-.249-.331-.364a4.874,4.874,0,0,0-.365-.331q-.19-.157-.4-.294c-.137-.091-.278-.176-.422-.253s-.294-.148-.445-.211a4.822,4.822,0,0,0-.464-.166A4.905,4.905,0,0,0,56.7.1c-.161-.033-.323-.057-.487-.073S55.883,0,55.719,0ZM5.52,2.008h50.2c.1,0,.2.005.295.015s.2.024.293.043.192.043.286.072a2.928,2.928,0,0,1,.278.1q.137.057.267.126c.087.047.171.1.253.152s.161.114.238.176.149.129.219.2.136.143.2.219a2.827,2.827,0,0,1,.176.237q.082.123.153.254t.126.267q.057.137.1.278a2.926,2.926,0,0,1,.073.287c.019.1.034.194.043.292s.015.2.015.3V38.151H47.687V10.04a4.874,4.874,0,0,0-.025-.492c-.016-.163-.041-.326-.073-.487s-.073-.32-.12-.478-.1-.311-.166-.463-.133-.3-.211-.445-.162-.286-.254-.422-.189-.269-.293-.4-.215-.249-.331-.364-.238-.227-.365-.331-.259-.2-.4-.294-.278-.176-.422-.253-.294-.148-.446-.211a4.758,4.758,0,0,0-.463-.166,4.906,4.906,0,0,0-.478-.12c-.161-.033-.323-.057-.487-.073s-.327-.025-.492-.025h-24.1c-.165,0-.328.009-.492.025s-.326.041-.487.073-.32.072-.478.12a4.813,4.813,0,0,0-.463.166,5.044,5.044,0,0,0-.867.464c-.137.091-.269.189-.4.294a5.083,5.083,0,0,0-.7.7c-.1.127-.2.259-.294.4a4.852,4.852,0,0,0-.253.422c-.078.145-.148.293-.211.445a4.813,4.813,0,0,0-.166.463c-.048.158-.088.316-.12.478s-.057.324-.073.487-.025.327-.025.492V38.151H2.508V5.02a2.833,2.833,0,0,1,.015-.3c.01-.1.024-.2.043-.292s.043-.193.072-.287a2.885,2.885,0,0,1,.1-.278A2.914,2.914,0,0,1,2.865,3.6q.069-.13.152-.254c.055-.082.114-.161.176-.237s.129-.149.2-.219.142-.136.219-.2.155-.121.237-.176.166-.105.254-.152.176-.089.267-.126.184-.071.278-.1.19-.053.287-.072a2.947,2.947,0,0,1,.292-.043C5.323,2.013,5.421,2.008,5.52,2.008Zm40.16,36.143H15.56V10.04c0-.1.005-.2.015-.3s.024-.2.043-.292.043-.193.072-.287.062-.187.1-.278.08-.18.126-.267.1-.171.152-.254.114-.161.176-.237.129-.149.2-.219.142-.136.219-.2.155-.121.237-.176.167-.106.254-.152.176-.089.267-.126.184-.071.278-.1.19-.053.287-.072.194-.034.292-.043.2-.015.3-.015h24.1c.1,0,.2.005.3.015s.2.024.292.043.192.043.286.072.187.062.278.1.18.08.267.126a2.909,2.909,0,0,1,.253.152q.123.082.237.176t.219.2a2.876,2.876,0,0,1,.2.219c.063.076.121.155.176.237s.106.167.152.254a2.919,2.919,0,0,1,.127.267q.057.137.1.278a2.771,2.771,0,0,1,.072.287c.019.1.034.194.044.292s.014.2.015.3Zm0,19.076v1H15.56v-1a.978.978,0,0,1,.019-.2,1,1,0,0,1,.057-.189,1.008,1.008,0,0,1,.093-.173,1.009,1.009,0,0,1,.451-.37,1.021,1.021,0,0,1,.188-.057,1.031,1.031,0,0,1,.2-.019H44.675a1.022,1.022,0,0,1,.2.019,1.04,1.04,0,0,1,.189.057,1.053,1.053,0,0,1,.173.093,1,1,0,0,1,.277.277,1.008,1.008,0,0,1,.093.173,1,1,0,0,1,.058.189A1.022,1.022,0,0,1,45.679,57.227Zm-5.4-3.012H20.96a14.457,14.457,0,0,0,3.629-6.024H36.65A14.464,14.464,0,0,0,40.28,54.215Zm15.44-8.032H5.52c-.1,0-.2-.005-.3-.015a2.946,2.946,0,0,1-.292-.043q-.146-.029-.287-.072c-.094-.029-.187-.062-.278-.1s-.18-.08-.267-.126a2.919,2.919,0,0,1-.254-.152c-.082-.055-.161-.114-.237-.176s-.149-.129-.219-.2a2.885,2.885,0,0,1-.2-.219c-.062-.076-.121-.155-.176-.237s-.106-.167-.152-.254a3.046,3.046,0,0,1-.226-.545c-.029-.094-.053-.19-.072-.287s-.034-.194-.043-.292a2.833,2.833,0,0,1-.015-.3V40.16H58.731v3.012c0,.1-.005.2-.015.3s-.025.2-.043.292a2.926,2.926,0,0,1-.073.287q-.043.141-.1.278t-.126.267q-.07.13-.153.254a2.826,2.826,0,0,1-.176.237,2.877,2.877,0,0,1-.2.219q-.1.1-.219.2c-.077.062-.155.121-.238.176a2.909,2.909,0,0,1-.253.152q-.13.069-.267.126a2.927,2.927,0,0,1-.278.1q-.141.043-.286.072c-.1.019-.194.034-.293.043S55.818,46.183,55.719,46.183Zm0,0" transform="translate(-0.5)" fill="#bd2c34"/>
    </g>
    <path id="Path_2523" data-name="Path 2523" d="M201.586,289.328a.981.981,0,0,1-.019.2,1,1,0,0,1-.057.189,1.009,1.009,0,0,1-.093.173,1.009,1.009,0,0,1-.451.37,1.017,1.017,0,0,1-.188.057,1.006,1.006,0,0,1-.58-.057,1.013,1.013,0,0,1-.174-.093,1,1,0,0,1-.277-.277,1.01,1.01,0,0,1-.093-.173,1.038,1.038,0,0,1-.057-.189,1,1,0,0,1,.057-.58.992.992,0,0,1,.093-.174,1,1,0,0,1,.277-.277,1.06,1.06,0,0,1,.174-.093,1.039,1.039,0,0,1,.189-.057,1,1,0,0,1,.58.057,1.037,1.037,0,0,1,.174.093,1,1,0,0,1,.37.451,1,1,0,0,1,.077.384Zm0,0" transform="translate(-169.963 -246.157)" fill="#bd2c34"/>
    <path id="Path_2524" data-name="Path 2524" d="M128.073,113.47a1,1,0,0,0-.167-.1.995.995,0,0,0-.379-.1.983.983,0,0,0-.2.007,1.023,1.023,0,0,0-.371.127,1.052,1.052,0,0,0-.159.116,1,1,0,0,0-.134.144l-4.969,6.526a1,1,0,0,0-.153.287,1.005,1.005,0,0,0,0,.642,1,1,0,0,0,.153.287l4.969,6.526a1,1,0,0,0,.292.27,1,1,0,0,0,.18.086,1.041,1.041,0,0,0,.194.049,1.014,1.014,0,0,0,.4-.021,1.009,1.009,0,0,0,.358-.173,1.035,1.035,0,0,0,.146-.137,1.006,1.006,0,0,0,.242-.54.974.974,0,0,0,0-.2.952.952,0,0,0-.035-.2,1.026,1.026,0,0,0-.073-.186,1.045,1.045,0,0,0-.109-.168l-4.506-5.917,4.505-5.918a.976.976,0,0,0,.1-.168,1,1,0,0,0,.069-.184,1.066,1.066,0,0,0,.031-.194.986.986,0,0,0-.007-.2,1,1,0,0,0-.045-.191,1,1,0,0,0-.2-.339A1,1,0,0,0,128.073,113.47Zm0,0" transform="translate(-103.297 -96.699)" fill="#bd2c34"/>
    <path id="Path_2525" data-name="Path 2525" d="M245.387,113.666a1.034,1.034,0,0,0-.134-.144,1.022,1.022,0,0,0-.16-.115.975.975,0,0,0-.179-.081.96.96,0,0,0-.191-.045,1.027,1.027,0,0,0-.2-.007,1.024,1.024,0,0,0-.379.1,1.013,1.013,0,0,0-.311.238.989.989,0,0,0-.115.159,1.017,1.017,0,0,0-.082.179,1,1,0,0,0-.052.388,1,1,0,0,0,.1.379.991.991,0,0,0,.1.167l4.519,5.916-4.519,5.916a1.032,1.032,0,0,0-.1.167,1.008,1.008,0,0,0-.069.185,1.02,1.02,0,0,0-.032.194,1.034,1.034,0,0,0,.007.2,1.049,1.049,0,0,0,.045.191,1.035,1.035,0,0,0,.082.179,1.02,1.02,0,0,0,.115.16,1.064,1.064,0,0,0,.144.134,1.012,1.012,0,0,0,.352.173,1.019,1.019,0,0,0,.194.031.989.989,0,0,0,.2-.007.96.96,0,0,0,.191-.045.976.976,0,0,0,.179-.082,1.022,1.022,0,0,0,.16-.115,1,1,0,0,0,.134-.144l4.984-6.526a1.006,1.006,0,0,0,0-1.22Zm0,0" transform="translate(-207.533 -96.706)" fill="#bd2c34"/>
    <path id="Path_2526" data-name="Path 2526" d="M193.94,113.3a1.01,1.01,0,0,0-.391-.007,1,1,0,0,0-.19.053,1.057,1.057,0,0,0-.175.09.989.989,0,0,0-.154.122.995.995,0,0,0-.224.322.978.978,0,0,0-.061.187l-2.855,13.052a1.015,1.015,0,0,0-.023.2.98.98,0,0,0,.016.2,1,1,0,0,0,.053.19,1.015,1.015,0,0,0,.09.175.989.989,0,0,0,.122.154,1.031,1.031,0,0,0,.15.128,1,1,0,0,0,.359.157.982.982,0,0,0,.2.023.994.994,0,0,0,.386-.069.958.958,0,0,0,.175-.09.988.988,0,0,0,.282-.271,1.036,1.036,0,0,0,.1-.172,1.026,1.026,0,0,0,.061-.187l2.855-13.052a1.028,1.028,0,0,0,.023-.2.982.982,0,0,0-.016-.2,1,1,0,0,0-.053-.19,1.053,1.053,0,0,0-.09-.175.97.97,0,0,0-.122-.155,1.026,1.026,0,0,0-.15-.127,1.018,1.018,0,0,0-.359-.157Zm0,0" transform="translate(-161.671 -96.706)" fill="#bd2c34"/>
    <path id="Path_2527" data-name="Path 2527" d="M36.832,103.976a1.022,1.022,0,0,1-.019.2,1.039,1.039,0,0,1-.057.189.978.978,0,0,1-.093.174,1.025,1.025,0,0,1-.125.152,1.059,1.059,0,0,1-.152.125,1.013,1.013,0,0,1-.174.093,1.039,1.039,0,0,1-.189.057,1,1,0,0,1-.58-.057,1.01,1.01,0,0,1-.451-.37,1.014,1.014,0,0,1-.093-.174.957.957,0,0,1-.057-.189,1,1,0,0,1,0-.392.94.94,0,0,1,.057-.188.992.992,0,0,1,.093-.174,1.02,1.02,0,0,1,.277-.277.992.992,0,0,1,.174-.093,1,1,0,0,1,.58-.057,1,1,0,0,1,.189.057.99.99,0,0,1,.326.218,1,1,0,0,1,.125.152.958.958,0,0,1,.093.174,1.019,1.019,0,0,1,.057.188A1.031,1.031,0,0,1,36.832,103.976Zm0,0" transform="translate(-29.304 -87.913)" fill="#bd2c34"/>
    <path id="Path_2528" data-name="Path 2528" d="M35.828,42.356a.979.979,0,0,0,.2-.019.956.956,0,0,0,.189-.057.99.99,0,0,0,.326-.218,1,1,0,0,0,.125-.152.958.958,0,0,0,.093-.174,1.02,1.02,0,0,0,.057-.188,1.031,1.031,0,0,0,.019-.2V35.328a1.009,1.009,0,0,0-.077-.384.958.958,0,0,0-.093-.174,1,1,0,0,0-.125-.152.99.99,0,0,0-.326-.218,1,1,0,0,0-.189-.057,1,1,0,0,0-.58.057.992.992,0,0,0-.174.093,1.021,1.021,0,0,0-.277.277.993.993,0,0,0-.093.174.934.934,0,0,0-.057.189.977.977,0,0,0-.019.2v6.024a.987.987,0,0,0,.019.2.94.94,0,0,0,.057.188.993.993,0,0,0,.093.174,1.02,1.02,0,0,0,.277.277.992.992,0,0,0,.174.093.939.939,0,0,0,.188.057A.987.987,0,0,0,35.828,42.356Zm0,0" transform="translate(-29.304 -29.304)" fill="#bd2c34"/>
  </g>
</svg>
