<svg xmlns="http://www.w3.org/2000/svg" xmlns:xlink="http://www.w3.org/1999/xlink" width="64.233" height="64.233" viewBox="0 0 64.233 64.233">
  <defs>
    <clipPath id="clip-path">
      <path id="Path_4561" data-name="Path 4561" d="M908.242,645h47.816v56.893H908.242Zm0,0" transform="translate(-908.242 -645)" fill="#bd2c34"/>
    </clipPath>
    <clipPath id="clip-path-2">
      <path id="Path_4563" data-name="Path 4563" d="M954,624.621h47.753v57.044H954Zm0,0" transform="translate(-954 -624.621)" fill="#bd2c34"/>
    </clipPath>
  </defs>
  <g id="Group_1001" data-name="Group 1001" transform="translate(-12605.66 -1245.371)">
    <path id="Path_4558" data-name="Path 4558" d="M976.261,674.833l3.14,1.275a13.755,13.755,0,0,1-.036,3.133l-3.1,1.238a1.068,1.068,0,0,0-.64.736,14.642,14.642,0,0,1-1.684,4.06,1.069,1.069,0,0,0-.068.974l1.313,3.129a15.282,15.282,0,0,1-2.237,2.182l-3.074-1.308a1.059,1.059,0,0,0-.974.066,14.658,14.658,0,0,1-4.06,1.685,1.06,1.06,0,0,0-.736.64l-1.28,3.14a14.223,14.223,0,0,1-3.123-.037l-1.242-3.1a1.06,1.06,0,0,0-.736-.64,14.621,14.621,0,0,1-4.06-1.685,1.058,1.058,0,0,0-.975-.066l-3.128,1.313a15.046,15.046,0,0,1-2.179-2.241l1.308-3.074a1.064,1.064,0,0,0-.066-.974,14.646,14.646,0,0,1-1.685-4.06,1.065,1.065,0,0,0-.64-.736l-3.14-1.272v0a13.818,13.818,0,0,1,.038-3.132l3.1-1.238a1.068,1.068,0,0,0,.64-.736,14.609,14.609,0,0,1,1.685-4.06,1.067,1.067,0,0,0,.066-.975l-1.313-3.128a15,15,0,0,1,2.237-2.184l3.074,1.308a1.054,1.054,0,0,0,.975-.066,14.662,14.662,0,0,1,4.06-1.685,1.057,1.057,0,0,0,.736-.64l1.279-3.14a14.333,14.333,0,0,1,3.125.038l1.242,3.1a1.057,1.057,0,0,0,.736.64,14.7,14.7,0,0,1,4.06,1.685,1.051,1.051,0,0,0,.974.066L973,663.746a15.115,15.115,0,0,1,2.178,2.241l-1.308,3.074a1.071,1.071,0,0,0,.068.975,14.605,14.605,0,0,1,1.684,4.06A1.071,1.071,0,0,0,976.261,674.833Zm.56-10.279a20.438,20.438,0,0,0-2.445-2.447,2.161,2.161,0,0,0-2.275-.326l-2.576,1.1a16.613,16.613,0,0,0-3.638-1.51l-1.037-2.606a2.213,2.213,0,0,0-1.823-1.372,19.154,19.154,0,0,0-3.492,0,2.209,2.209,0,0,0-1.828,1.376l-1.037,2.6a16.554,16.554,0,0,0-3.638,1.51l-2.576-1.1a2.16,2.16,0,0,0-2.275.326,20.341,20.341,0,0,0-2.447,2.447,2.157,2.157,0,0,0-.326,2.275l1.1,2.58a16.846,16.846,0,0,0-1.51,3.634l-2.6,1.041a2.2,2.2,0,0,0-1.372,1.811,17.67,17.67,0,0,0,0,3.513,2.208,2.208,0,0,0,1.372,1.819l2.6,1.041a16.906,16.906,0,0,0,1.51,3.634l-1.1,2.58a2.158,2.158,0,0,0,.326,2.275,20.311,20.311,0,0,0,2.447,2.445,2.157,2.157,0,0,0,2.275.326l2.576-1.1a16.621,16.621,0,0,0,3.638,1.511l1.037,2.6a2.209,2.209,0,0,0,1.823,1.372c.6.051,1.209.08,1.794.08s1.162-.03,1.7-.08a2.208,2.208,0,0,0,1.828-1.376l1.037-2.6a16.68,16.68,0,0,0,3.638-1.511l2.576,1.1a2.156,2.156,0,0,0,2.275-.326,20.105,20.105,0,0,0,2.445-2.445,2.158,2.158,0,0,0,.326-2.275l-1.1-2.58a17.052,17.052,0,0,0,1.51-3.634l2.6-1.041a2.2,2.2,0,0,0,1.372-1.811,17.4,17.4,0,0,0,0-3.509,2.2,2.2,0,0,0-1.372-1.823l-2.6-1.041a16.991,16.991,0,0,0-1.51-3.634l1.1-2.58a2.157,2.157,0,0,0-.326-2.275" transform="translate(11676.499 599.832)" fill="#bd2c34"/>
    <path id="Path_4559" data-name="Path 4559" d="M974.589,701.673a10.705,10.705,0,1,1,10.705-10.705A10.715,10.715,0,0,1,974.589,701.673Zm0-23.552a12.847,12.847,0,1,0,12.847,12.847,12.861,12.861,0,0,0-12.847-12.847" transform="translate(11663.188 586.519)" fill="#bd2c34"/>
    <g id="Group_995" data-name="Group 995" transform="translate(12605.66 1252.711)" clip-path="url(#clip-path)">
      <path id="Path_4560" data-name="Path 4560" d="M916.986,650.315a1.063,1.063,0,0,0-.962-.606h-.288a1.071,1.071,0,0,1,0-2.141h5.353a1.073,1.073,0,0,1,1.071,1.071v5.352a1.071,1.071,0,0,1-2.141,0,1.072,1.072,0,0,0-2-.543,27.832,27.832,0,0,0,34.245,41.76,1.061,1.061,0,0,1,1.335.384,1.07,1.07,0,0,1-.411,1.548,29.58,29.58,0,0,1-12.834,2.886,30.007,30.007,0,0,1-29.976-29.976,29.647,29.647,0,0,1,6.479-18.605A1.056,1.056,0,0,0,916.986,650.315Zm23.372,51.851a31.734,31.734,0,0,0,13.754-3.091,3.2,3.2,0,0,0,1.811-2.894,3.165,3.165,0,0,0-.539-1.777,3.2,3.2,0,0,0-4.039-1.128,25.368,25.368,0,0,1-10.987,2.466,25.721,25.721,0,0,1-25.693-25.693,25.459,25.459,0,0,1,4.069-13.875,3.211,3.211,0,0,0,5.566-2.184v-5.352a3.211,3.211,0,0,0-3.211-3.212h-5.353a3.212,3.212,0,0,0-1.556,6.022,31.737,31.737,0,0,0-5.937,18.6,32.151,32.151,0,0,0,32.116,32.117" transform="translate(-908.242 -645.272)" fill="#bd2c34"/>
    </g>
    <g id="Group_996" data-name="Group 996" transform="translate(12622.141 1245.371)" clip-path="url(#clip-path-2)">
      <path id="Path_4562" data-name="Path 4562" d="M993.255,675.342a1.071,1.071,0,0,0,.84,1.736h.288a1.071,1.071,0,0,1,0,2.141h-5.352a1.073,1.073,0,0,1-1.071-1.071V672.8a1.071,1.071,0,0,1,2.141,0,1.072,1.072,0,0,0,1.927.644,27.837,27.837,0,0,0-34.179-41.862,1.055,1.055,0,0,1-1.334-.384,1.067,1.067,0,0,1,.409-1.548,29.58,29.58,0,0,1,12.834-2.886,30.007,30.007,0,0,1,29.976,29.976A29.625,29.625,0,0,1,993.255,675.342ZM969.76,624.621a31.758,31.758,0,0,0-13.754,3.09,3.214,3.214,0,0,0,2.769,5.8,25.423,25.423,0,0,1,10.985-2.468,25.7,25.7,0,0,1,21.629,39.573,3.211,3.211,0,0,0-5.57,2.179v5.353a3.212,3.212,0,0,0,3.212,3.211h5.352a3.212,3.212,0,0,0,1.556-6.022,31.729,31.729,0,0,0,5.939-18.6,32.152,32.152,0,0,0-32.117-32.116" transform="translate(-954.125 -624.621)" fill="#bd2c34"/>
    </g>
    <path id="Path_4564" data-name="Path 4564" d="M977.6,705.185a1.071,1.071,0,0,0-1.514,0l-2.141,2.141a1.071,1.071,0,0,0,0,1.514l2.141,2.141a1.07,1.07,0,0,0,1.514,0,1.071,1.071,0,0,0,0-1.514l-1.384-1.384L977.6,706.7a1.071,1.071,0,0,0,0-1.514" transform="translate(11655.579 569.403)" fill="#bd2c34"/>
    <path id="Path_4565" data-name="Path 4565" d="M1009.615,705.185a1.071,1.071,0,0,0,0,1.514l1.384,1.384-1.384,1.384a1.07,1.07,0,1,0,1.514,1.514l2.141-2.141a1.071,1.071,0,0,0,0-1.514l-2.141-2.141a1.071,1.071,0,0,0-1.514,0" transform="translate(11632.758 569.403)" fill="#bd2c34"/>
    <path id="Path_4566" data-name="Path 4566" d="M995.017,701.952a1.068,1.068,0,0,0-1.355.678l-2.141,6.423a1.075,1.075,0,0,0,.678,1.355,1.047,1.047,0,0,0,.338.055,1.076,1.076,0,0,0,1.017-.732l2.14-6.424a1.075,1.075,0,0,0-.677-1.355" transform="translate(11644.169 571.308)" fill="#bd2c34"/>
  </g>
</svg>
