<svg xmlns="http://www.w3.org/2000/svg" xmlns:xlink="http://www.w3.org/1999/xlink" width="62.258" height="62.261" viewBox="0 0 62.258 62.261">
  <defs>
    <clipPath id="clip-path">
      <path id="Path_4504" data-name="Path 4504" d="M280.566,373.238h62.258V435.5H280.566Zm0,0" transform="translate(-280.566 -373.238)" fill="#bd2c34"/>
    </clipPath>
  </defs>
  <g id="Group_982" data-name="Group 982" transform="translate(-11070.094 -1225.724)">
    <g id="Group_981" data-name="Group 981" transform="translate(11070.094 1225.724)" clip-path="url(#clip-path)">
      <path id="Path_4503" data-name="Path 4503" d="M336.582,433.081v-1.672a1.033,1.033,0,0,0-1.038-1.035H323.707a25.259,25.259,0,0,0,3.817-2.071h8.019a1.037,1.037,0,0,0,1.038-1.038V425.59l3.98,3.748ZM282.716,428.3h30.042v2.071H282.716Zm51.744-19.679h2.094a22.741,22.741,0,0,1-21.722,21.714v-2.089A20.7,20.7,0,0,0,334.459,408.623Zm-6.02-15.684a20.565,20.565,0,0,0-13.608-6.022v-2.071a22.7,22.7,0,0,1,21.7,21.707h-2.071A20.563,20.563,0,0,0,328.439,392.939Zm-29.29,0a20.548,20.548,0,0,0-6.022,13.613h-2.071a22.7,22.7,0,0,1,21.7-21.707v2.071A20.565,20.565,0,0,0,299.149,392.939Zm-3.727,21.786,1.587-.525-2.316,4.943-4.786-2.6,1.579-.518a1.058,1.058,0,0,0,.6-.518,1.038,1.038,0,0,0,.062-.793,22.466,22.466,0,0,1-1.1-6.087h2.074a20.453,20.453,0,0,0,1,5.443A1.039,1.039,0,0,0,295.422,414.725ZM286.86,387.9a9.322,9.322,0,0,1,9.325-9.319,1.039,1.039,0,0,0,1.036-1.035v-1.677l3.977,3.745-3.977,3.745v-1.672a1.036,1.036,0,0,0-1.036-1.035,7.241,7.241,0,0,0-3.4,13.642q-.556.873-1.035,1.785A9.27,9.27,0,0,1,286.86,387.9Zm50.623,35.7a1.764,1.764,0,0,0-1.929-.325,1.693,1.693,0,0,0-1.046,1.569v1.388H330.24a24.858,24.858,0,1,0-34.019-36.221,25.464,25.464,0,0,0-2.244,2.576,5.177,5.177,0,0,1,1.169-9.757v1.285a1.7,1.7,0,0,0,1.041,1.571,1.792,1.792,0,0,0,1.94-.332l4.783-4.5a1.709,1.709,0,0,0-.01-2.481l-4.778-4.495a1.779,1.779,0,0,0-1.929-.327,1.7,1.7,0,0,0-1.046,1.569v1.437a11.39,11.39,0,0,0-4.289,21.413,24.947,24.947,0,0,0-.987,16.4l-1.327.438a1.69,1.69,0,0,0-1.175,1.473,1.792,1.792,0,0,0,.922,1.739l5.783,3.148a1.71,1.71,0,0,0,1.339.106,1.729,1.729,0,0,0,1-.9l2.779-5.942a1.79,1.79,0,0,0-.309-1.942,1.7,1.7,0,0,0-1.808-.487l-1.29.425a18.65,18.65,0,1,1,18.01,13.806H282.716a2.073,2.073,0,0,0-2.071,2.074v2.071a2.074,2.074,0,0,0,2.071,2.071h51.792v1.386a1.7,1.7,0,0,0,1.046,1.574,1.785,1.785,0,0,0,1.934-.332l4.786-4.505a1.685,1.685,0,0,0,.525-1.229,1.718,1.718,0,0,0-.533-1.244l-4.783-4.5" transform="translate(-280.593 -373.293)" fill="#bd2c34"/>
    </g>
  </g>
</svg>
