<svg xmlns="http://www.w3.org/2000/svg" xmlns:xlink="http://www.w3.org/1999/xlink" width="67.726" height="65.315" viewBox="0 0 67.726 65.315">
  <defs>
    <clipPath id="clip-path">
      <path id="Path_4539" data-name="Path 4539" d="M817.57,51.25H885.3v65.315H817.57Zm0,0" transform="translate(0)" fill="#bd2c34"/>
    </clipPath>
  </defs>
  <g id="Group_988" data-name="Group 988" transform="translate(-817.57 -51.25)" clip-path="url(#clip-path)">
    <path id="Path_4538" data-name="Path 4538" d="M884.225,114.388H881.19V71.676a1.087,1.087,0,0,0-1.088-1.087H852.549V52.337a1.087,1.087,0,0,0-1.088-1.087H822.818a1.088,1.088,0,0,0-1.088,1.087v62.051H818.7a1.087,1.087,0,1,0,0,2.174h65.53a1.087,1.087,0,1,0,0-2.174ZM823.907,53.424h26.466v60.965H823.907Zm28.642,60.963V72.764h26.467v41.624ZM834.476,102.4h-5.2a1.087,1.087,0,0,0-1.088,1.087v5.6a1.087,1.087,0,0,0,1.088,1.087h5.2a1.087,1.087,0,0,0,1.088-1.087v-5.6A1.087,1.087,0,0,0,834.476,102.4Zm-1.089,5.594h-3.022v-3.42h3.022Zm1.089-50.349h-5.2a1.088,1.088,0,0,0-1.088,1.088v5.6a1.087,1.087,0,0,0,1.088,1.087h5.2a1.087,1.087,0,0,0,1.088-1.087v-5.6A1.088,1.088,0,0,0,834.476,57.644Zm-1.089,5.6h-3.022V59.818h3.022Zm11.619,16.783h-5.2a1.088,1.088,0,0,0-1.089,1.087v5.6a1.088,1.088,0,0,0,1.089,1.087h5.2a1.087,1.087,0,0,0,1.088-1.087v-5.6A1.087,1.087,0,0,0,845.006,80.022Zm-1.089,5.593h-3.023V82.194h3.023Zm-9.441-16.783h-5.2a1.088,1.088,0,0,0-1.088,1.088v5.6a1.087,1.087,0,0,0,1.088,1.087h5.2a1.087,1.087,0,0,0,1.088-1.087v-5.6A1.088,1.088,0,0,0,834.476,68.832Zm-1.089,5.6h-3.022V71.006h3.022Zm1.089,16.783h-5.2a1.087,1.087,0,0,0-1.088,1.087v5.6a1.087,1.087,0,0,0,1.088,1.087h5.2a1.087,1.087,0,0,0,1.088-1.087V92.3A1.087,1.087,0,0,0,834.476,91.211ZM833.387,96.8h-3.022v-3.42h3.022Zm1.089-16.782h-5.2a1.087,1.087,0,0,0-1.088,1.087v5.6a1.087,1.087,0,0,0,1.088,1.087h5.2a1.087,1.087,0,0,0,1.088-1.087v-5.6A1.087,1.087,0,0,0,834.476,80.022Zm-1.089,5.593h-3.022V82.194h3.022Zm11.619,5.6h-5.2a1.088,1.088,0,0,0-1.089,1.087v5.6a1.088,1.088,0,0,0,1.089,1.087h5.2a1.087,1.087,0,0,0,1.088-1.087V92.3A1.087,1.087,0,0,0,845.006,91.211ZM843.917,96.8h-3.023v-3.42h3.023Zm1.089-27.973h-5.2a1.089,1.089,0,0,0-1.089,1.088v5.6a1.088,1.088,0,0,0,1.089,1.087h5.2a1.087,1.087,0,0,0,1.088-1.087v-5.6A1.088,1.088,0,0,0,845.006,68.832Zm-1.089,5.6h-3.023V71.006h3.023Zm1.089-16.783h-5.2a1.089,1.089,0,0,0-1.089,1.088v5.6a1.088,1.088,0,0,0,1.089,1.087h5.2a1.087,1.087,0,0,0,1.088-1.087v-5.6A1.088,1.088,0,0,0,845.006,57.644Zm-1.089,5.6h-3.023V59.818h3.023Zm1.089,39.16h-5.2a1.088,1.088,0,0,0-1.089,1.087v5.6a1.088,1.088,0,0,0,1.089,1.087h5.2a1.087,1.087,0,0,0,1.088-1.087v-5.6A1.087,1.087,0,0,0,845.006,102.4Zm-1.089,5.594h-3.023v-3.42h3.023Zm29.73-18.3h-5.2a1.088,1.088,0,0,0-1.089,1.087v5.6a1.089,1.089,0,0,0,1.089,1.088h5.2a1.089,1.089,0,0,0,1.088-1.088v-5.6A1.088,1.088,0,0,0,873.647,89.692Zm-1.089,5.594h-3.023v-3.42h3.023ZM873.647,78.5h-5.2a1.088,1.088,0,0,0-1.089,1.087v5.6a1.089,1.089,0,0,0,1.089,1.088h5.2a1.089,1.089,0,0,0,1.088-1.088v-5.6A1.088,1.088,0,0,0,873.647,78.5ZM872.558,84.1h-3.023V80.676h3.023Zm1.089,16.783h-5.2a1.088,1.088,0,0,0-1.089,1.087v5.6a1.088,1.088,0,0,0,1.089,1.087h5.2a1.088,1.088,0,0,0,1.088-1.087v-5.6A1.088,1.088,0,0,0,873.647,100.88Zm-1.089,5.594h-3.023v-3.42h3.023Zm-9.44-5.594h-5.2a1.087,1.087,0,0,0-1.088,1.087v5.6a1.087,1.087,0,0,0,1.088,1.087h5.2a1.088,1.088,0,0,0,1.089-1.087v-5.6A1.088,1.088,0,0,0,863.118,100.88Zm-1.088,5.594h-3.023v-3.42h3.023Zm1.088-16.782h-5.2a1.087,1.087,0,0,0-1.088,1.087v5.6a1.088,1.088,0,0,0,1.088,1.088h5.2a1.089,1.089,0,0,0,1.089-1.088v-5.6A1.088,1.088,0,0,0,863.118,89.692Zm-1.088,5.594h-3.023v-3.42h3.023ZM863.118,78.5h-5.2a1.087,1.087,0,0,0-1.088,1.087v5.6a1.088,1.088,0,0,0,1.088,1.088h5.2a1.089,1.089,0,0,0,1.089-1.088v-5.6A1.088,1.088,0,0,0,863.118,78.5ZM862.031,84.1h-3.023V80.676h3.023Zm0,0" transform="translate(-0.028)" fill="#bd2c34"/>
  </g>
</svg>
