<svg xmlns="http://www.w3.org/2000/svg" xmlns:xlink="http://www.w3.org/1999/xlink" width="72.554" height="72.554" viewBox="0 0 72.554 72.554">
  <defs>
    <clipPath id="clip-path">
      <path id="Path_4357" data-name="Path 4357" d="M721.621,50.664h72.554v72.554H721.621Zm0,0" transform="translate(-721.621 -50.664)" fill="#bd2c34"/>
    </clipPath>
  </defs>
  <g id="Group_1065" data-name="Group 1065" transform="translate(-9075.621 988.867)">
    <g id="Group_933" data-name="Group 933" transform="translate(9075.621 -988.867)" clip-path="url(#clip-path)">
      <path id="Path_4356" data-name="Path 4356" d="M790.035,63.354h-32.61a1.987,1.987,0,0,0-1.184-.392,2.236,2.236,0,0,1-1.58-3.815,2,2,0,0,0,0-2.823l-2.084-2.085a2,2,0,0,0-2.823,0,2.236,2.236,0,0,1-3.815-1.58,2,2,0,0,0-2-2h-2.947a2,2,0,0,0-2,2,2.236,2.236,0,0,1-3.815,1.58,2,2,0,0,0-2.823,0l-2.085,2.085a2,2,0,0,0,0,2.823,2.236,2.236,0,0,1-1.58,3.815,2,2,0,0,0-2,2v2.947a2,2,0,0,0,2,2,2.236,2.236,0,0,1,1.58,3.815,2,2,0,0,0,0,2.823l2.084,2.085a2,2,0,0,0,.76.474V84.53a1.874,1.874,0,0,0-.653,1.422,1.851,1.851,0,0,1-3.156,1.308,1.883,1.883,0,0,0-2.661,0L724.81,89.1a1.883,1.883,0,0,0,0,2.662,1.85,1.85,0,0,1-1.308,3.156,1.883,1.883,0,0,0-1.881,1.881v2.6a1.884,1.884,0,0,0,1.881,1.882,1.85,1.85,0,0,1,1.308,3.156,1.882,1.882,0,0,0,0,2.661l1.839,1.839a1.882,1.882,0,0,0,2.661,0,1.849,1.849,0,0,1,3.156,1.308,1.884,1.884,0,0,0,1.882,1.881h2.6a1.884,1.884,0,0,0,1.882-1.881,1.85,1.85,0,0,1,3.156-1.308,1.882,1.882,0,0,0,2.661,0l1.187-1.187h9.138a23.117,23.117,0,0,1-1.663,8.256h-3.453a3.606,3.606,0,0,0,0,7.212h27.58a3.606,3.606,0,1,0,0-7.212h-3.461a23.072,23.072,0,0,1-1.784-8.256h16.719a5.27,5.27,0,0,0,5.264-5.264V67.495A4.145,4.145,0,0,0,790.035,63.354Zm-31.8,4.552v-2.5h31.8a2.086,2.086,0,0,1,2.083,2.084V97.267H749.677V96.8a1.884,1.884,0,0,0-1.882-1.882,1.851,1.851,0,0,1-1.308-3.156,1.882,1.882,0,0,0,0-2.661l-1.838-1.839a1.883,1.883,0,0,0-2.662,0,1.851,1.851,0,0,1-3.156-1.308,1.884,1.884,0,0,0-1.881-1.882h-1.773V78.632l.007-.006A2.234,2.234,0,0,1,739,80.206a2,2,0,0,0,2,2h2.947a2,2,0,0,0,2-2,2.236,2.236,0,0,1,3.815-1.58,2,2,0,0,0,2.823,0l2.084-2.085a2,2,0,0,0,0-2.823,2.236,2.236,0,0,1,1.58-3.815A2,2,0,0,0,758.238,67.907Zm-26.467,7.222a4.293,4.293,0,0,0-3.016-7.282V65.018a4.292,4.292,0,0,0,3.016-7.281l2-2a4.292,4.292,0,0,0,7.282-3.016h2.829a4.293,4.293,0,0,0,7.282,3.016l2,2a4.292,4.292,0,0,0,3.016,7.281v2.829a4.293,4.293,0,0,0-3.016,7.282l-2,2a4.293,4.293,0,0,0-7.282,3.016h-2.829a4.291,4.291,0,0,0-7.282-3.016Zm12.418,26.505a3.84,3.84,0,0,0,.724,4.129l-1.6,1.6a3.907,3.907,0,0,0-6.537,2.707h-2.259a3.906,3.906,0,0,0-6.537-2.707l-1.6-1.6a3.907,3.907,0,0,0-2.707-6.537V96.969a3.908,3.908,0,0,0,2.707-6.538l1.6-1.6a3.907,3.907,0,0,0,6.537-2.707h2.259a3.907,3.907,0,0,0,6.537,2.707l1.6,1.6a3.908,3.908,0,0,0,2.707,6.538v2.258A3.84,3.84,0,0,0,744.189,101.634Zm34.8,17.977a1.551,1.551,0,0,1-1.55,1.55h-27.58a1.55,1.55,0,0,1,0-3.1h27.58A1.551,1.551,0,0,1,778.987,119.611Zm-7.245-3.606H755.53a26.157,26.157,0,0,0,1.5-8.256h13.107A25.926,25.926,0,0,0,771.743,116.005Zm17.168-10.313H747.034a1.858,1.858,0,0,0-.547-1.257,1.851,1.851,0,0,1,1.308-3.156,1.885,1.885,0,0,0,1.882-1.882v-.073h42.441v3.161A3.21,3.21,0,0,1,788.911,105.693ZM767,102.509a1.028,1.028,0,0,1-1.028,1.028h-4.658a1.028,1.028,0,0,1,0-2.057h4.658A1.028,1.028,0,0,1,767,102.509ZM742.468,74.544a8.111,8.111,0,1,0-8.111-8.112A8.12,8.12,0,0,0,742.468,74.544Zm0-14.166a6.055,6.055,0,1,1-6.054,6.055A6.062,6.062,0,0,1,742.468,60.378Zm-6.819,30.445a7.274,7.274,0,1,0,7.273,7.273A7.282,7.282,0,0,0,735.649,90.824Zm0,12.491a5.218,5.218,0,1,1,5.218-5.218A5.223,5.223,0,0,1,735.649,103.315Zm34.417-7.933a6.654,6.654,0,1,0-6.654-6.655A6.662,6.662,0,0,0,770.066,95.382Zm0-11.253a4.6,4.6,0,1,1-4.6,4.6A4.6,4.6,0,0,1,770.066,84.129Zm-2.48,5.625,1.025-1.026L767.586,87.7a1.028,1.028,0,0,1,1.453-1.454l1.026,1.026,1.025-1.026a1.028,1.028,0,0,1,1.454,1.454l-1.026,1.025,1.026,1.026a1.028,1.028,0,0,1-1.454,1.453l-1.025-1.025-1.026,1.025a1.028,1.028,0,0,1-1.453-1.453Zm2.48-9.473a6.654,6.654,0,1,0-6.654-6.655A6.662,6.662,0,0,0,770.066,80.281Zm0-11.252a4.6,4.6,0,1,1-4.6,4.6A4.6,4.6,0,0,1,770.066,69.029Zm-3.139,5.038a1.028,1.028,0,1,1,1.652-1.224l.819,1.1,2.121-1.879a1.028,1.028,0,0,1,1.362,1.54l-2.961,2.623a1.029,1.029,0,0,1-1.508-.158Zm0,0" transform="translate(-721.621 -50.664)" fill="#bd2c34"/>
    </g>
  </g>
</svg>
