<svg xmlns="http://www.w3.org/2000/svg" xmlns:xlink="http://www.w3.org/1999/xlink" width="99.368" height="62.443" viewBox="0 0 99.368 62.443"><defs><clipPath id="a"><rect width="52.512" height="30.476" fill="#bd2c34"/></clipPath><clipPath id="b"><rect width="3.235" height="14.696" fill="#bd2c34"/></clipPath><clipPath id="c"><rect width="99.368" height="3.247" fill="#bd2c34"/></clipPath><clipPath id="d"><rect width="51.764" height="9.271" fill="#bd2c34"/></clipPath></defs><g transform="translate(-115.281 -75.339)"><path d="M206.413,92.112a1.576,1.576,0,0,1-1.14-.489,3.463,3.463,0,0,1-.548-.883,18.6,18.6,0,0,0-2.161-3.407,10.423,10.423,0,0,0-.842-.991c-.07-.068-.207-.2-.4-.359a5.173,5.173,0,0,1-.874.685,6.243,6.243,0,0,1-3.717.8h-.068c-.028,0-2.975-.067-6.118.15l-.151.01a7.061,7.061,0,0,0-2.74.526c-.648.345-1.054,1.148-1.315,2.6a1.651,1.651,0,0,1-1.069,1.261,1.61,1.61,0,0,1-1.85-.573,5.7,5.7,0,0,1-.878-2.834l0-.026c-.155-1.41-.348-3.933.1-5.007A11.211,11.211,0,0,1,185.15,80c2.984-2.885,7.87-4.014,8.818-4.211a19.33,19.33,0,0,1,5.269-.407,16.915,16.915,0,0,1,3,.444,4.71,4.71,0,0,1,2.751,1.736,6.111,6.111,0,0,1,.645,1.222,2.677,2.677,0,0,0,.366.695,5.771,5.771,0,0,0,.828.667,8.572,8.572,0,0,1,1.213.986,7.832,7.832,0,0,1,2.223,4.327,6.434,6.434,0,0,1-1.128,3.967c-.069.113-.4.623-.721,1.1-.614.9-1.022,1.5-1.837,1.585A1.345,1.345,0,0,1,206.413,92.112Zm-5.384-9.705a2.607,2.607,0,0,1,1.474.576l.027.019a10.839,10.839,0,0,1,1.363,1.118A12.9,12.9,0,0,1,205,85.408a22.49,22.49,0,0,1,1.571,2.247,3.262,3.262,0,0,0,.6-1.89,4.856,4.856,0,0,0-1.35-2.461,6.284,6.284,0,0,0-.8-.632,8.277,8.277,0,0,1-1.294-1.072,5.143,5.143,0,0,1-.954-1.6,3.545,3.545,0,0,0-.313-.634,1.773,1.773,0,0,0-.989-.532,13.961,13.961,0,0,0-2.454-.358,16.313,16.313,0,0,0-4.423.35c-2.216.46-5.454,1.627-7.291,3.4a8.166,8.166,0,0,0-1.782,2.5,6.732,6.732,0,0,0-.057,1.156,4.806,4.806,0,0,1,.723-.474,9.557,9.557,0,0,1,3.99-.885l.149-.009c3.293-.228,6.281-.159,6.406-.157l.07,0a3.434,3.434,0,0,0,2-.327,2.415,2.415,0,0,0,.776-.813,1.681,1.681,0,0,1,1.082-.772A1.735,1.735,0,0,1,201.029,82.407Zm1.216,2.408a.054.054,0,0,0-.008.014A.054.054,0,0,1,202.245,84.815Z" transform="translate(-50.917 0)" fill="#bd2c34" fill-rule="evenodd"/><path d="M193.907,151.849a11,11,0,0,1-2.381-.259,11.749,11.749,0,0,1-4.756-2.356,12.137,12.137,0,0,1-3.66-5.218,13.125,13.125,0,0,1-.487-1.811,6.13,6.13,0,0,1-3.13-4.115,5.73,5.73,0,0,1,1.953-5.67,1.553,1.553,0,0,1,2.043,2.34,2.629,2.629,0,0,0-.964,2.659,2.965,2.965,0,0,0,1.915,2.18,1.555,1.555,0,0,1,1.106,1.285,11.293,11.293,0,0,0,.487,2.081,9.1,9.1,0,0,0,2.705,3.865,8.671,8.671,0,0,0,3.456,1.726,7.777,7.777,0,0,0,3.363,0,7.566,7.566,0,0,0,2.608-1.2,9.3,9.3,0,0,0,1.746-1.61,11.566,11.566,0,0,0,2.309-5.054,1.552,1.552,0,0,1,1.26-1.208c.652-.11,1.533-1.4,1.63-2.756s-.611-1.591-.843-1.666a1.553,1.553,0,0,1,.95-2.958,4.446,4.446,0,0,1,2.991,4.848,6.543,6.543,0,0,1-3.157,5.251,13.975,13.975,0,0,1-2.767,5.548,12.308,12.308,0,0,1-2.359,2.166,10.621,10.621,0,0,1-3.654,1.66,10.389,10.389,0,0,1-2.364.265" transform="translate(-48.632 -43.035)" fill="#bd2c34" fill-rule="evenodd"/><path d="M209.469,203.1a1.554,1.554,0,0,1-1.39-2.244,7.524,7.524,0,0,0,.808-3.007,2.77,2.77,0,0,0-.151-1.028c-.032-.114-.068-.242-.105-.386a1.553,1.553,0,1,1,3.009-.772c.026.105.055.2.085.31a5.84,5.84,0,0,1,.267,1.957,10.722,10.722,0,0,1-1.131,4.307,1.554,1.554,0,0,1-1.392.863" transform="translate(-70.314 -90.448)" fill="#bd2c34" fill-rule="evenodd"/><path d="M255.4,204.115a1.552,1.552,0,0,1-1.356-.794,10.507,10.507,0,0,1-1.4-4.738,5.82,5.82,0,0,1,.268-1.956c.011-.044.023-.088.037-.135a1.553,1.553,0,1,1,2.993.832c-.014.051-.029.1-.042.148a2.821,2.821,0,0,0-.151,1.031,7.4,7.4,0,0,0,1,3.3,1.553,1.553,0,0,1-1.353,2.314" transform="translate(-104.263 -91.096)" fill="#bd2c34" fill-rule="evenodd"/><g transform="translate(118.828 107.305)"><g transform="translate(0 0)" clip-path="url(#a)"><g transform="translate(0.2 0.106)"><path d="M181.534,238.81h-49.15a1.555,1.555,0,0,1-1.554-1.548c-.01-3.522.153-12.328,1.918-18.02a15.1,15.1,0,0,1,1.83-3.969,15.63,15.63,0,0,1,5.827-5.12,15.916,15.916,0,0,1,7.851-1.7,1.557,1.557,0,0,1,1,.419l7.5,7.05,7.931-7.076a1.551,1.551,0,0,1,.97-.393,15.916,15.916,0,0,1,7.778,1.661,1.554,1.554,0,1,1-1.393,2.778,12.785,12.785,0,0,0-5.715-1.345l-8.564,7.64a1.553,1.553,0,0,1-2.1-.026l-8.105-7.614a12.76,12.76,0,0,0-5.751,1.375,12.393,12.393,0,0,0-4.644,4.065,11.9,11.9,0,0,0-1.454,3.175c-1.435,4.63-1.722,11.872-1.77,15.54h47.589a1.554,1.554,0,0,1,0,3.108" transform="translate(-130.83 -208.44)" fill="#bd2c34" fill-rule="evenodd"/></g></g></g><g transform="translate(128.473 123.085)"><g transform="translate(0 0)" clip-path="url(#b)"><g transform="translate(0.069 0.022)"><path d="M171.865,288.252a1.552,1.552,0,0,1-1.553-1.554V275.131a1.553,1.553,0,0,1,3.106,0V286.7a1.553,1.553,0,0,1-1.553,1.554" transform="translate(-170.312 -273.578)" fill="#bd2c34" fill-rule="evenodd"/></g></g></g><g transform="translate(115.281 134.534)"><g clip-path="url(#c)"><g transform="translate(-0.019 0.14)"><path d="M213.037,324.689h-96.28a1.554,1.554,0,1,1,0-3.107h96.28a1.554,1.554,0,1,1,0,3.107" transform="translate(-115.203 -321.582)" fill="#bd2c34" fill-rule="evenodd"/></g></g></g><g transform="translate(155.973 128.51)"><g clip-path="url(#d)"><g transform="translate(0.09 0.224)"><path d="M328.559,305.977H292.016a7.5,7.5,0,0,1-7.489-7.493,1.554,1.554,0,0,1,1.552-1.555H334.5a1.553,1.553,0,0,1,1.552,1.555A7.5,7.5,0,0,1,328.559,305.977Zm-40.642-5.94a4.39,4.39,0,0,0,4.1,2.832h36.544a4.394,4.394,0,0,0,4.1-2.832H287.918" transform="translate(-284.527 -296.93)" fill="#bd2c34" fill-rule="evenodd"/></g></g></g><path d="M341.641,216.22H299.874a1.554,1.554,0,0,1-1.554-1.553v-24.02a4.147,4.147,0,0,1,4.142-4.143h36.591a4.147,4.147,0,0,1,4.141,4.143v24.02A1.553,1.553,0,0,1,341.641,216.22Zm-40.214-3.108h38.662V190.647a1.038,1.038,0,0,0-1.035-1.036H302.462a1.037,1.037,0,0,0-1.035,1.036v22.465" transform="translate(-138.933 -84.379)" fill="#bd2c34" fill-rule="evenodd"/><path d="M331.653,109.617a1.542,1.542,0,0,1-.941-.32l-8.249-6.3a1.553,1.553,0,0,1,0-2.469l8.249-6.3A1.554,1.554,0,0,1,332.6,96.69l-6.634,5.069,6.634,5.069a1.555,1.555,0,0,1-.944,2.79" transform="translate(-156.795 -14.089)" fill="#bd2c34" fill-rule="evenodd"/><path d="M415.448,109.617a1.555,1.555,0,0,1-.944-2.79l6.633-5.07L414.5,96.69a1.554,1.554,0,0,1,1.885-2.471l8.248,6.3a1.552,1.552,0,0,1,0,2.469l-8.248,6.3a1.551,1.551,0,0,1-.941.321" transform="translate(-226.658 -14.089)" fill="#bd2c34" fill-rule="evenodd"/><path d="M375.358,102.42a1.575,1.575,0,0,1-.42-.058,1.555,1.555,0,0,1-1.077-1.915l5.391-19.3a1.553,1.553,0,1,1,2.991.836l-5.392,19.3a1.552,1.552,0,0,1-1.494,1.136" transform="translate(-196.228 -3.545)" fill="#bd2c34" fill-rule="evenodd"/></g></svg>