<svg xmlns="http://www.w3.org/2000/svg" xmlns:xlink="http://www.w3.org/1999/xlink" width="60.132" height="69.321" viewBox="0 0 60.132 69.321">
  <defs>
    <clipPath id="clip-path">
      <path id="Path_4744" data-name="Path 4744" d="M204.082,48.98h60.132V118.3H204.082Zm0,0" transform="translate(-204.082 -48.98)" fill="#bd2c34"/>
    </clipPath>
  </defs>
  <g id="Untitled_design_-_2024-04-25T163545.329" data-name="Untitled design - 2024-04-25T163545.329" transform="translate(-204.082 -48.98)">
    <path id="Path_4740" data-name="Path 4740" d="M290.7,122.332H263.142a1.118,1.118,0,0,0-1.118,1.118V132.1a1.118,1.118,0,0,0,1.118,1.117H290.7a1.118,1.118,0,0,0,1.118-1.117V123.45A1.118,1.118,0,0,0,290.7,122.332Zm-1.119,8.654H264.26v-6.418h25.322Zm0,0" transform="translate(-48.202 -61.022)" fill="#bd2c34"/>
    <path id="Path_4741" data-name="Path 4741" d="M270.18,311.094a8.152,8.152,0,1,0-8.156-8.152A8.163,8.163,0,0,0,270.18,311.094Zm0-14.069a5.917,5.917,0,1,1-5.92,5.917A5.925,5.925,0,0,1,270.18,297.025Zm0,0" transform="translate(-48.202 -204.492)" fill="#bd2c34"/>
    <path id="Path_4742" data-name="Path 4742" d="M289.911,330.391a1.118,1.118,0,0,0,.8.337h.021a1.122,1.122,0,0,0,.808-.366l3.744-4.128a1.118,1.118,0,0,0-1.657-1.5l-2.945,3.247-.771-.79a1.118,1.118,0,1,0-1.6,1.561Zm0,0" transform="translate(-69.805 -229.097)" fill="#bd2c34"/>
    <g id="Group_1066" data-name="Group 1066" transform="translate(204.082 48.98)" clip-path="url(#clip-path)">
      <path id="Path_4743" data-name="Path 4743" d="M263.9,109.12a46.709,46.709,0,0,0-7.244-7.609,8.343,8.343,0,0,0-1.712-6.033l-1.586-2.035V54.29a5.3,5.3,0,0,0-5.3-5.3H209.382a5.305,5.305,0,0,0-5.3,5.3v56.251a5.3,5.3,0,0,0,5.3,5.3h38.673a5.279,5.279,0,0,0,2.616-.689c.588.849,1.249,1.756,2,2.715a1.117,1.117,0,0,0,1.359.324,33.167,33.167,0,0,0,9.853-7.672A1.118,1.118,0,0,0,263.9,109.12Zm-14.724-.9,6.223-4.846c.463.38,1.154.98,2.014,1.814a31.723,31.723,0,0,1-6.97,5.427C249.842,109.578,249.43,108.761,249.174,108.22Zm-3.087-19.4a4.791,4.791,0,0,0-1.777.869l-2.256,1.757-3.779-4.85H242.5a1.119,1.119,0,0,0,1.118-1.118V76.825a1.119,1.119,0,0,0-1.118-1.118H214.939a1.119,1.119,0,0,0-1.118,1.118v8.654a1.119,1.119,0,0,0,1.118,1.118h16.124a3.934,3.934,0,0,0,.444,4.114l5.872,7.536a6.377,6.377,0,0,0-5.436,2.829,3.6,3.6,0,0,0,.364,4.28c1.56,1.763,5.534,1.406,7.081,1.19a15.853,15.853,0,0,0,4.288,2.029H212.387a1.038,1.038,0,0,1-1.037-1.037V57.295a1.038,1.038,0,0,1,1.037-1.037H245.05a1.038,1.038,0,0,1,1.037,1.037Zm-30.03-4.459V77.942H241.38v6.419ZM254.417,101.3l-7.05,5.49c-3.591.27-6.987-2.284-7.021-2.309a1.119,1.119,0,0,0-.868-.215c-1.876.318-4.83.357-5.5-.4a1.392,1.392,0,0,1-.1-1.692c.622-1.093,2.494-2.148,5.718-1.532a1.118,1.118,0,0,0,1.093-1.785l-7.426-9.53a1.7,1.7,0,0,1,2.679-2.086l5.027,6.451a1.119,1.119,0,0,0,1.569.2l3.138-2.444a2.6,2.6,0,0,1,3.637.452l3.855,4.947A6.027,6.027,0,0,1,254.417,101.3Zm-6.361,12.3H209.382a3.066,3.066,0,0,1-3.064-3.062V54.29a3.066,3.066,0,0,1,3.064-3.062h38.673a3.067,3.067,0,0,1,3.064,3.062V90.573l-.034-.043a4.807,4.807,0,0,0-2.762-1.743V57.295a3.277,3.277,0,0,0-3.274-3.272H212.387a3.276,3.276,0,0,0-3.273,3.272v50.242a3.276,3.276,0,0,0,3.273,3.272H245.05a3.268,3.268,0,0,0,2.389-1.037c.429.857,1.075,2.05,1.993,3.5A3.047,3.047,0,0,1,248.056,113.6Zm9.887-.546a31.583,31.583,0,0,1-4.078,2.7c-.883-1.171-1.63-2.256-2.258-3.229a33.941,33.941,0,0,0,7.369-5.738c.791.846,1.66,1.836,2.58,2.978A31.506,31.506,0,0,1,257.943,113.057Zm0,0" transform="translate(-204.082 -48.99)" fill="#bd2c34"/>
    </g>
  </g>
</svg>
