<svg xmlns="http://www.w3.org/2000/svg" xmlns:xlink="http://www.w3.org/1999/xlink" width="67.855" height="71.514" viewBox="0 0 67.855 71.514">
  <defs>
    <clipPath id="clip-path">
      <path id="Path_4722" data-name="Path 4722" d="M289.8,93.75h67.855v71.514H289.8Zm0,0" fill="#bd2c34"/>
    </clipPath>
  </defs>
  <g id="Untitled_design_-_2024-04-25T162040.435" data-name="Untitled design - 2024-04-25T162040.435" transform="translate(-289.797 -93.75)" clip-path="url(#clip-path)">
    <path id="Path_4721" data-name="Path 4721" d="M310.871,125.341a1.154,1.154,0,0,1,1.153-1.154h14.727a1.154,1.154,0,0,1,0,2.308H312.025A1.154,1.154,0,0,1,310.871,125.341Zm1.153-3.622h14.728a1.154,1.154,0,0,0,0-2.308H312.025a1.154,1.154,0,0,0,0,2.308Zm0-13.177h14.728a1.154,1.154,0,0,0,0-2.308H312.025a1.154,1.154,0,0,0,0,2.308Zm0,4.776h14.728a1.154,1.154,0,0,0,0-2.308H312.025a1.154,1.154,0,0,0,0,2.308Zm-4.133,19.494v6.638a2.022,2.022,0,0,1-2.019,2.02h-6.635a2.022,2.022,0,0,1-2.019-2.02v-6.638a2.022,2.022,0,0,1,2.019-2.02h6.635A2.022,2.022,0,0,1,307.892,132.812Zm-2.307.287h-6.06v6.063h6.06Zm2.307-13.465v6.638a2.022,2.022,0,0,1-2.019,2.021h-6.635a2.022,2.022,0,0,1-2.019-2.021v-6.638a2.022,2.022,0,0,1,2.019-2.02h6.635A2.022,2.022,0,0,1,307.892,119.634Zm-2.307.288h-6.06v6.063h6.06Zm2.307-13.465v6.638a2.022,2.022,0,0,1-2.019,2.02h-6.635a2.022,2.022,0,0,1-2.019-2.02v-6.638a2.023,2.023,0,0,1,2.019-2.021h6.635A2.023,2.023,0,0,1,307.892,106.456Zm-2.307.287h-6.06v6.063h6.06Zm-4.443,4.854a1.153,1.153,0,0,0,1.591.039l2.217-2.013a1.154,1.154,0,0,0-1.55-1.709l-1.4,1.274-.244-.244a1.154,1.154,0,0,0-1.631,1.632Zm0,13.177a1.153,1.153,0,0,0,1.591.039l2.217-2.013a1.154,1.154,0,0,0-1.55-1.709l-1.4,1.275-.244-.245a1.154,1.154,0,0,0-1.631,1.632Zm56.474,36.346a1.153,1.153,0,0,1-1.153,1.154H333.2a4.145,4.145,0,0,1-2.851,2.842,4.179,4.179,0,0,1-1.142.16,4.156,4.156,0,0,1-3.982-3H301.989a1.154,1.154,0,0,1-1.153-1.154,28.32,28.32,0,0,1,1.456-8.985H292.076a2.286,2.286,0,0,1-2.283-2.284v-53.8a2.286,2.286,0,0,1,2.283-2.284h34.629a2.238,2.238,0,0,1,1.614.669l6.343,6.346a2.239,2.239,0,0,1,.668,1.615V133.38A28.45,28.45,0,0,1,357.616,161.121Zm-5.251-12.035-4.224,2.44a21.086,21.086,0,0,1,2.264,8.441h4.878A25.929,25.929,0,0,0,352.365,149.087Zm-9.115-9.96-2.439,4.228a21.367,21.367,0,0,1,6.173,6.177l4.226-2.441A26.29,26.29,0,0,0,343.25,139.126Zm-40.081,20.841h4.879a21.079,21.079,0,0,1,2.263-8.44l-4.224-2.44A25.928,25.928,0,0,0,303.169,159.967Zm14.472-16.613-2.441-4.227a26.3,26.3,0,0,0-7.958,7.963l4.226,2.441A21.39,21.39,0,0,1,317.641,143.355Zm10.432-3.423v-4.881a25.9,25.9,0,0,0-10.877,2.919l2.44,4.226A21.045,21.045,0,0,1,328.073,139.932Zm2.307,0a21.05,21.05,0,0,1,8.435,2.264l2.439-4.226a25.888,25.888,0,0,0-10.875-2.919Zm-2.053-39.155h3.066l-3.066-3.068Zm-25.148,49.051A28.56,28.56,0,0,1,318.321,134.9h-6.3a1.154,1.154,0,0,1,0-2.308h14.728a1.146,1.146,0,0,1,.631.189c.609-.039,1.223-.061,1.842-.061a28.582,28.582,0,0,1,3.8.255V103.085h-5.286a1.721,1.721,0,0,1-1.718-1.719V96.077H292.1v53.751Zm24.805,7.329,7.751-9.56a1.153,1.153,0,0,1,1.971,1.144l-4.351,11.226h14.739a18.9,18.9,0,0,0-37.735,0h14.868a4.146,4.146,0,0,1,2.758-2.81Zm4.917-2.4-2.061,2.542a4.36,4.36,0,0,1,.4.194,4.281,4.281,0,0,1,.482.316Zm-2.788,4.751a1.845,1.845,0,1,0,.714,2.51A1.836,1.836,0,0,0,330.112,159.509Zm0,0" transform="translate(0.003 -0.016)" fill="#bd2c34"/>
  </g>
</svg>
