<svg xmlns="http://www.w3.org/2000/svg" xmlns:xlink="http://www.w3.org/1999/xlink" width="61.11" height="61.11" viewBox="0 0 61.11 61.11">
  <defs>
    <clipPath id="clip-path">
      <path id="Path_2495" data-name="Path 2495" d="M110,329h28.635v12.3H110Zm0,0" transform="translate(-110 -329)" fill="#bd2c34"/>
    </clipPath>
    <clipPath id="clip-path-2">
      <path id="Path_2498" data-name="Path 2498" d="M.5,233H45.381v12.314H.5Zm0,0" transform="translate(-0.5 -233)" fill="#bd2c34"/>
    </clipPath>
    <clipPath id="clip-path-3">
      <path id="Path_2501" data-name="Path 2501" d="M316,233h14.3v26.541H316Zm0,0" transform="translate(-316 -233)" fill="#bd2c34"/>
    </clipPath>
    <clipPath id="clip-path-4">
      <path id="Path_2503" data-name="Path 2503" d="M.5,0H61.61V32.64H.5Zm0,0" transform="translate(-0.5)" fill="#bd2c34"/>
    </clipPath>
  </defs>
  <g id="Web_Mobile_Development" data-name="Web/Mobile Development" transform="translate(-0.5)">
    <g id="Group_607" data-name="Group 607" transform="translate(16.746 48.812)" clip-path="url(#clip-path)">
      <path id="Path_2494" data-name="Path 2494" d="M133.761,335.626h-3.055v-5.093a1.019,1.019,0,0,0-2.038,0v6.111a1.019,1.019,0,0,0,1.019,1.019h4.074a3.4,3.4,0,0,1,2.825,2.037H112.6a3.4,3.4,0,0,1,2.826-2.037h10.185a1.019,1.019,0,0,0,0-2.037h-5.093v-5.093a1.019,1.019,0,0,0-2.037,0v5.093h-3.055a5.365,5.365,0,0,0-5.093,5.093,1.02,1.02,0,0,0,1.019,1.019h26.481a1.019,1.019,0,0,0,1.018-1.019A5.364,5.364,0,0,0,133.761,335.626Zm0,0" transform="translate(-110.286 -329.439)" fill="#bd2c34"/>
    </g>
    <path id="Path_2496" data-name="Path 2496" d="M311.718,51.37a1.019,1.019,0,0,0,.72-1.739l-8.148-8.148a1.018,1.018,0,1,0-1.44,1.44L311,51.071A1.015,1.015,0,0,0,311.718,51.37Zm0,0" transform="translate(-257.237 -35.073)" fill="#bd2c34"/>
    <g id="Group_608" data-name="Group 608" transform="translate(0.5 34.569)" clip-path="url(#clip-path-2)">
      <path id="Path_2497" data-name="Path 2497" d="M45.314,234.422A1.019,1.019,0,0,0,44.3,233.4H1.519A1.019,1.019,0,0,0,.5,234.422v6.111a5.365,5.365,0,0,0,5.093,5.092H44.3a1.019,1.019,0,1,0,0-2.037H5.593a3.358,3.358,0,0,1-3.056-3.055v-5.093H44.3A1.019,1.019,0,0,0,45.314,234.422Zm0,0" transform="translate(-0.5 -233.343)" fill="#bd2c34"/>
    </g>
    <path id="Path_2499" data-name="Path 2499" d="M192.711,262.9a2.037,2.037,0,1,0,2.038-2.037A2.039,2.039,0,0,0,192.711,262.9Zm0,0" transform="translate(-163.693 -222.16)" fill="#bd2c34"/>
    <g id="Group_609" data-name="Group 609" transform="translate(47.309 34.569)" clip-path="url(#clip-path-3)">
      <path id="Path_2500" data-name="Path 2500" d="M327.485,233.4h-8.148a3.059,3.059,0,0,0-3.056,3.055v20.37a3.059,3.059,0,0,0,3.056,3.056h8.148a3.06,3.06,0,0,0,3.055-3.056v-20.37A3.06,3.06,0,0,0,327.485,233.4Zm1.018,23.426a1.019,1.019,0,0,1-1.018,1.018h-8.148a1.019,1.019,0,0,1-1.019-1.018v-20.37a1.019,1.019,0,0,1,1.019-1.018h8.148a1.019,1.019,0,0,1,1.018,1.018Zm0,0" transform="translate(-316.24 -233.343)" fill="#bd2c34"/>
    </g>
    <g id="Group_610" data-name="Group 610" transform="translate(0.5)" clip-path="url(#clip-path-4)">
      <path id="Path_2502" data-name="Path 2502" d="M56.517,0H5.593A5.365,5.365,0,0,0,.5,5.092V31.573a1.018,1.018,0,0,0,2.037,0V5.092A3.358,3.358,0,0,1,5.593,2.037H56.517a3.357,3.357,0,0,1,3.055,3.055V31.573a1.019,1.019,0,0,0,2.037,0V5.092A5.364,5.364,0,0,0,56.517,0Zm0,0" transform="translate(-0.5)" fill="#bd2c34"/>
    </g>
    <path id="Path_2504" data-name="Path 2504" d="M358.665,370.7h-.012a1.024,1.024,0,1,0,.012,0Zm0,0" transform="translate(-304.153 -315.7)" fill="#bd2c34"/>
    <path id="Path_2505" data-name="Path 2505" d="M346.793,45.258a1.018,1.018,0,0,0,.72-1.738l-2.037-2.037a1.019,1.019,0,1,0-1.441,1.44l2.038,2.037A1.015,1.015,0,0,0,346.793,45.258Zm0,0" transform="translate(-292.313 -35.073)" fill="#bd2c34"/>
  </g>
</svg>
